<svg width="24" height="13" viewBox="0 0 24 13" fill="none" xmlns="http://www.w3.org/2000/svg">
<path d="M4.0625 12.2656C6.59375 12.2656 8.04688 10.125 8.04688 6.38281C8.04688 2.64844 6.57031 0.460938 4.0625 0.460938C1.53906 0.460938 0.0625 2.64062 0.0625 6.35938C0.0625 10.1094 1.52344 12.2656 4.0625 12.2656ZM4.0625 11.0391C2.39844 11.0391 1.47656 9.375 1.47656 6.35938C1.47656 3.38281 2.41406 1.69531 4.0625 1.69531C5.71094 1.69531 6.63281 3.36719 6.63281 6.35938C6.63281 9.38281 5.72656 11.0391 4.0625 11.0391ZM17.4609 1.97656H19.2578C20.875 1.97656 21.6562 2.83594 21.6562 4.1875C21.6562 5.54688 20.8672 6.41406 19.2578 6.41406H17.4609V1.97656ZM20.7031 10.2031V9.14062H17.4609V7.63281H19.6094C21.7266 7.63281 23.1016 6.17188 23.1016 4.1875C23.1016 2.21094 21.7422 0.726562 19.625 0.726562H16.0547V6.41406H14.4922V7.63281H16.0547V9.14062H14.4922V10.2031H16.0547V12H17.4609V10.2031H20.7031Z" fill="white"/>
</svg>
